Coordinates
version=1
nRows=14
nColumns=40
inDegrees=yes

Units are S.I. units (second, meters, Newtons, ...)
If the header above contains a line with 'inDegrees', this indicates whether rotational values are in degrees (yes) or radians (no).

endheader
time	pelvis_tilt	pelvis_list	pelvis_rotation	pelvis_tx	pelvis_ty	pelvis_tz	hip_flexion_r	hip_adduction_r	hip_rotation_r	knee_angle_r	knee_angle_r_beta	ankle_angle_r	subtalar_angle_r	mtp_angle_r	hip_flexion_l	hip_adduction_l	hip_rotation_l	knee_angle_l	knee_angle_l_beta	ankle_angle_l	subtalar_angle_l	mtp_angle_l	lumbar_extension	lumbar_bending	lumbar_rotation	arm_flex_r	arm_add_r	arm_rot_r	elbow_flex_r	pro_sup_r	wrist_flex_r	wrist_dev_r	arm_flex_l	arm_add_l	arm_rot_l	elbow_flex_l	pro_sup_l	wrist_flex_l	wrist_dev_l
      0.44500000	      1.39988801	     -4.40754375	     -2.83898445	     -0.09562502	      0.93299842	      0.28536077	     -0.03934876	      7.36763257	     -9.22751194	      9.93654343	      0.17342540	     -3.45894053	     -7.18020362	      0.00000000	     12.41640520	    -18.90367937	    -19.57038078	     64.48502204	      1.12547595	     -5.09345291	     -8.35892835	      0.00000000	     -3.56437286	      4.72076829	      4.76880220	     25.56252314	    -11.51786637	     25.56252314	     77.11931030	     42.76865276	      0.00000000	      0.00000000	     25.56252314	    -11.51786637	     25.56252314	     77.11931030	     42.76865276	      0.00000000	      0.00000000
      0.45000000	      1.43652589	     -4.08352563	     -3.03962886	     -0.08934638	      0.93359535	      0.28555716	     -0.65305872	      6.98135316	     -9.25086297	      9.66539793	      0.16869302	     -3.19069814	     -6.57533906	      0.00000000	     13.02686497	    -18.43940707	    -19.76061915	     63.76088445	      1.11283737	     -4.35508566	     -8.07422553	      0.00000000	     -3.60574377	      4.33117097	      4.79790258	     25.58314165	    -11.52385012	     25.58314165	     77.11218160	     42.78947139	      0.00000000	      0.00000000	     25.58314165	    -11.52385012	     25.58314165	     77.11218160	     42.78947139	      0.00000000	      0.00000000
      0.45500000	      1.72659895	     -3.50831949	     -3.25039108	     -0.08296236	      0.93462157	      0.28574050	     -1.43383543	      6.24122139	     -9.56942216	      9.64492255	      0.16833565	     -2.60515010	     -5.53099090	      0.00000000	     13.20461004	    -17.64057075	    -20.14541768	     62.70838314	      1.09446775	     -3.90027829	     -7.99888057	      0.00000000	     -3.88903742	      3.61030492	      4.72695626	     25.65322501	    -11.54416348	     25.65322501	     77.08806417	     42.85901988	      0.00000000	      0.00000000	     25.65322501	    -11.54416348	     25.65322501	     77.08806417	     42.85901988	      0.00000000	      0.00000000
      0.46000000	      1.83948422	     -3.15894693	     -3.42630879	     -0.07667280	      0.93520761	      0.28586689	     -2.07701008	      5.79426376	     -9.71744655	      9.48803735	      0.16559749	     -2.23992029	     -4.81804345	      0.00000000	     13.66430864	    -17.13097649	    -20.39024400	     61.78809364	      1.07840567	     -3.33522147	     -7.71775577	      0.00000000	     -4.00847229	      3.16724383	      4.68347333	     25.71406602	    -11.56176164	     25.71406602	     77.06728523	     42.91774464	      0.00000000	      0.00000000	     25.71406602	    -11.56176164	     25.71406602	     77.06728523	     42.91774464	      0.00000000	      0.00000000
      0.46500000	      1.95725091	     -2.77657060	     -3.60966461	     -0.07032302	      0.93573518	      0.28597184	     -2.72089180	      5.29988121	     -9.86237365	      9.34342006	      0.16307344	     -1.86018241	     -4.13757141	      0.00000000	     14.07592665	    -16.58997987	    -20.71536950	     60.79729348	      1.06111295	     -2.84489009	     -7.51986063	      0.00000000	     -4.11569835	      2.70662699	      4.65883864	     25.78516553	    -11.58228687	     25.78516553	     77.04317646	     42.98459110	      0.00000000	      0.00000000	     25.78516553	    -11.58228687	     25.78516553	     77.04317646	     42.98459110	      0.00000000	      0.00000000
      0.47000000	      2.08903963	     -2.40427230	     -3.81019387	     -0.06400114	      0.93623548	      0.28616204	     -3.37227219	      4.81605322	     -9.98358235	      9.20537906	      0.16066417	     -1.48450208	     -3.44981356	      0.00000000	     14.43863388	    -16.04659854	    -21.01965988	     59.72578503	      1.04241160	     -2.39825318	     -7.27369596	      0.00000000	     -4.24909167	      2.23891317	      4.65170065	     25.86887162	    -11.60639406	     25.86887162	     77.01503938	     43.06082015	      0.00000000	      0.00000000	     25.86887162	    -11.60639406	     25.86887162	     77.01503938	     43.06082015	      0.00000000	      0.00000000
      0.47500000	      2.02942645	     -2.24898005	     -3.95297903	     -0.05773148	      0.93627180	      0.28625032	     -3.87657514	      4.61927266	     -9.95290747	      8.93529140	      0.15595025	     -1.29215661	     -3.08304691	      0.00000000	     15.10552192	    -15.79836359	    -21.21340268	     58.82374843	      1.02666809	     -1.84401757	     -6.93225256	      0.00000000	     -4.18911819	      2.04976519	      4.67742584	     25.88357164	    -11.61062132	     25.88357164	     77.01012472	     43.07394806	      0.00000000	      0.00000000	     25.88357164	    -11.61062132	     25.88357164	     77.01012472	     43.07394806	      0.00000000	      0.00000000
      0.48000000	      2.34768752	     -1.76561814	     -4.23469433	     -0.05146252	      0.93697134	      0.28665958	     -4.68705185	      3.98685310	    -10.04175521	      8.86288883	      0.15468659	     -0.84841999	     -2.32200932	      0.00000000	     15.11367047	    -15.13004737	    -21.71609980	     57.46434628	      1.00294205	     -1.65122181	     -6.77853988	      0.00000000	     -4.52359903	      1.40436687	      4.72457574	     25.95275629	    -11.63049118	     25.95275629	     76.98710404	     43.13465527	      0.00000000	      0.00000000	     25.95275629	    -11.63049118	     25.95275629	     76.98710404	     43.13465527	      0.00000000	      0.00000000
      0.48500000	      2.25447783	     -1.84991041	     -4.35218913	     -0.04524476	      0.93676892	      0.28660554	     -5.08639884	      4.03557020	    -10.10803200	      8.76566902	      0.15298979	     -0.68458131	     -2.20840218	      0.00000000	     15.82710103	    -15.16823053	    -21.89725657	     56.56651776	      0.98727198	     -1.31259741	     -6.63579099	      0.00000000	     -4.43521624	      1.48818463	      4.69288972	     25.95729026	    -11.63179163	     25.95729026	     76.98560226	     43.13857144	      0.00000000	      0.00000000	     25.95729026	    -11.63179163	     25.95729026	     76.98560226	     43.13857144	      0.00000000	      0.00000000
      0.49000000	      2.49175961	     -1.33674731	     -4.60454262	     -0.03883466	      0.93721550	      0.28706184	     -5.94237932	      3.40283964	    -10.02296020	      8.40113003	      0.14662738	     -0.34666784	     -1.41559466	      0.00000000	     15.87726865	    -14.46673991	    -22.34837507	     55.13597540	      0.96230431	     -0.85096152	     -6.03433481	      0.00000000	     -4.66045498	      0.80896232	      4.80139154	     25.99128373	    -11.64153725	     25.99128373	     76.97436430	     43.16770260	      0.00000000	      0.00000000	     25.99128373	    -11.64153725	     25.99128373	     76.97436430	     43.16770260	      0.00000000	      0.00000000
      0.49500000	      2.49821202	     -1.11678723	     -4.80625579	     -0.03259146	      0.93715215	      0.28730581	     -6.47117995	      3.10554689	     -9.96567428	      8.22228360	      0.14350592	     -0.03356987	     -0.97761268	      0.00000000	     16.30515331	    -14.11707903	    -22.65104601	     53.90021114	      0.94073615	     -0.56123141	     -5.79118117	      0.00000000	     -4.67121397	      0.50555506	      4.86087943	     26.01568814	    -11.64852766	     26.01568814	     76.96632209	     43.18837508	      0.00000000	      0.00000000	     26.01568814	    -11.64852766	     26.01568814	     76.96632209	     43.18837508	      0.00000000	      0.00000000
      0.50000000	      2.42384231	     -1.25961556	     -4.91166057	     -0.02649999	      0.93675349	      0.28727223	     -6.86517108	      3.21331474	    -10.02061299	      8.17897015	      0.14274996	      0.14659941	     -0.87606531	      0.00000000	     16.94961575	    -14.23179664	    -22.87932521	     52.90136293	      0.92330296	     -0.33212310	     -5.69022445	      0.00000000	     -4.64737041	      0.62983352	      4.81566981	     26.01970914	    -11.64967870	     26.01970914	     76.96499975	     43.19175875	      0.00000000	      0.00000000	     26.01970914	    -11.64967870	     26.01970914	     76.96499975	     43.19175875	      0.00000000	      0.00000000
      0.50500000	      2.79590934	     -0.59739337	     -5.30091374	     -0.02016412	      0.93729079	      0.28799681	     -7.77940945	      2.36702508	     -9.89335551	      7.94838450	      0.13872548	      0.63413780	      0.00884107	      0.00000000	     16.65192389	    -13.32080113	    -23.51482882	     51.06188592	      0.89119803	     -0.26459426	     -5.33021048	      0.00000000	     -5.01085134	     -0.24866153	      5.05405865	     26.07503510	    -11.66550505	     26.07503510	     76.94685746	     43.23778299	      0.00000000	      0.00000000	     26.07503510	    -11.66550505	     26.07503510	     76.94685746	     43.23778299	      0.00000000	      0.00000000
      0.51000000	      2.81732731	     -0.45647844	     -5.49005468	     -0.01393707	      0.93702623	      0.28824361	     -8.31771296	      2.14383278	     -9.86255095	      7.78362574	      0.13584990	      0.92927626	      0.45880971	      0.00000000	     16.99724071	    -13.06746403	    -23.85450574	     49.70084489	      0.86744338	     -0.03992982	     -5.00040472	      0.00000000	     -5.04234039	     -0.47558269	      5.14273356	     26.10980894	    -11.67543850	     26.10980894	     76.93551239	     43.26617934	      0.00000000	      0.00000000	     26.10980894	    -11.67543850	     26.10980894	     76.93551239	     43.26617934	      0.00000000	      0.00000000
